<?xml version="1.0" encoding="UTF-8"?>
<svg xmlns="http://www.w3.org/2000/svg" width="640" height="360" viewBox="0 0 640 360">
  <defs>
    <linearGradient id="sky" x1="0" y1="0" x2="0" y2="1">
      <stop offset="0%" stop-color="#9ed4e5"/>
      <stop offset="100%" stop-color="#f0c889"/>
    </linearGradient>
  </defs>
  <rect width="640" height="360" fill="url(#sky)"/>
  <circle cx="535" cy="72" r="30" fill="#ffe4a1" opacity="0.9"/>
  <line x1="169.12" y1="214.40" x2="595.14" y2="215.26" stroke="#6f604d" stroke-width="0.7" opacity="0.6"/>
  <line x1="162.13" y1="215.85" x2="606.32" y2="216.78" stroke="#6f604d" stroke-width="0.7" opacity="0.6"/>
  <line x1="154.52" y1="217.42" x2="618.52" y2="218.43" stroke="#6f604d" stroke-width="0.7" opacity="0.6"/>
  <line x1="146.21" y1="219.13" x2="631.86" y2="220.25" stroke="#6f604d" stroke-width="0.7" opacity="0.6"/>
  <line x1="137.10" y1="221.02" x2="646.52" y2="222.24" stroke="#6f604d" stroke-width="0.7" opacity="0.6"/>
  <line x1="127.07" y1="223.09" x2="662.72" y2="224.44" stroke="#6f604d" stroke-width="0.7" opacity="0.6"/>
  <polygon points="555.19,224.90 445.61,224.62 445.61,94.83 555.19,94.29" fill="#934743" stroke="#18283b" stroke-width="1" opacity="1"/>
  <line x1="115.98" y1="225.38" x2="680.69" y2="226.88" stroke="#6f604d" stroke-width="0.7" opacity="0.6"/>
  <polygon points="445.61,224.62 464.33,232.21 464.33,80.32 445.61,94.83" fill="#db8a6d" stroke="#18283b" stroke-width="1" opacity="1"/>
  <polygon points="464.33,80.32 592.85,79.58 555.19,94.29 445.61,94.83" fill="#db8a6d" stroke="#18283b" stroke-width="1" opacity="1"/>
  <polygon points="592.85,232.60 555.19,224.90 555.19,94.29 592.85,79.58" fill="#934743" stroke="#18283b" stroke-width="1" opacity="1"/>
  <line x1="103.64" y1="227.93" x2="700.75" y2="229.61" stroke="#6f604d" stroke-width="0.7" opacity="0.6"/>
  <polygon points="361.91,230.09 247.09,229.76 247.09,100.08 361.91,99.55" fill="#4c765b" stroke="#18283b" stroke-width="1" opacity="1"/>
  <line x1="89.83" y1="230.78" x2="723.29" y2="232.67" stroke="#6f604d" stroke-width="0.7" opacity="0.6"/>
  <polygon points="489.68,201.88 503.13,201.90 503.13,186.67 489.68,186.66" fill="#e8cf82" stroke="#132236" stroke-width="1" opacity="0.95"/>
  <polygon points="489.68,163.83 503.13,163.81 503.13,148.58 489.68,148.60" fill="#e8cf82" stroke="#132236" stroke-width="1" opacity="0.95"/>
  <polygon points="489.68,125.77 503.13,125.73 503.13,110.49 489.68,110.55" fill="#e8cf82" stroke="#132236" stroke-width="1" opacity="0.95"/>
  <polygon points="464.33,232.21 592.85,232.60 592.85,79.58 464.33,80.32" fill="#bf625b" stroke="#18283b" stroke-width="1" opacity="1"/>
  <polygon points="521.75,201.92 535.25,201.94 535.25,186.68 521.75,186.67" fill="#e8cf82" stroke="#132236" stroke-width="1" opacity="0.95"/>
  <polygon points="521.75,163.80 535.25,163.78 535.25,148.52 521.75,148.55" fill="#e8cf82" stroke="#132236" stroke-width="1" opacity="0.95"/>
  <polygon points="521.75,125.67 535.25,125.63 535.25,110.37 521.75,110.42" fill="#e8cf82" stroke="#132236" stroke-width="1" opacity="0.95"/>
  <polygon points="553.94,201.96 567.49,201.98 567.49,186.69 553.94,186.68" fill="#e8cf82" stroke="#132236" stroke-width="1" opacity="0.95"/>
  <polygon points="553.94,163.77 567.49,163.75 567.49,148.46 553.94,148.49" fill="#e8cf82" stroke="#132236" stroke-width="1" opacity="0.95"/>
  <polygon points="553.94,125.57 567.49,125.53 567.49,110.24 553.94,110.29" fill="#e8cf82" stroke="#132236" stroke-width="1" opacity="0.95"/>
  <polygon points="247.09,229.76 231.37,238.59 231.37,85.90 247.09,100.08" fill="#9bbd83" stroke="#18283b" stroke-width="1" opacity="1"/>
  <polygon points="231.37,85.90 366.61,85.16 361.91,99.55 247.09,100.08" fill="#9bbd83" stroke="#18283b" stroke-width="1" opacity="1"/>
  <polygon points="366.61,239.05 361.91,230.09 361.91,99.55 366.61,85.16" fill="#4c765b" stroke="#18283b" stroke-width="1" opacity="1"/>
  <line x1="74.27" y1="234.00" x2="748.79" y2="236.13" stroke="#6f604d" stroke-width="0.7" opacity="0.6"/>
  <polygon points="257.47,209.01 272.38,209.03 272.38,191.93 257.47,191.92" fill="#e8cf82" stroke="#132236" stroke-width="1" opacity="0.95"/>
  <polygon points="257.47,170.75 272.38,170.74 272.38,153.64 257.47,153.66" fill="#e8cf82" stroke="#132236" stroke-width="1" opacity="0.95"/>
  <polygon points="257.47,132.48 272.38,132.44 272.38,115.34 257.47,115.40" fill="#e8cf82" stroke="#132236" stroke-width="1" opacity="0.95"/>
  <polygon points="231.37,238.59 366.61,239.05 366.61,85.16 231.37,85.90" fill="#6c9b75" stroke="#18283b" stroke-width="1" opacity="1"/>
  <polygon points="291.22,209.06 306.18,209.09 306.18,191.96 291.22,191.95" fill="#e8cf82" stroke="#132236" stroke-width="1" opacity="0.95"/>
  <polygon points="291.22,170.73 306.18,170.72 306.18,153.59 291.22,153.61" fill="#e8cf82" stroke="#132236" stroke-width="1" opacity="0.95"/>
  <polygon points="291.22,132.39 306.18,132.35 306.18,115.22 291.22,115.27" fill="#e8cf82" stroke="#132236" stroke-width="1" opacity="0.95"/>
  <polygon points="325.09,209.12 340.11,209.15 340.11,191.98 325.09,191.97" fill="#e8cf82" stroke="#132236" stroke-width="1" opacity="0.95"/>
  <polygon points="325.09,170.71 340.11,170.70 340.11,153.53 325.09,153.56" fill="#e8cf82" stroke="#132236" stroke-width="1" opacity="0.95"/>
  <polygon points="325.09,132.30 340.11,132.26 340.11,115.09 325.09,115.15" fill="#e8cf82" stroke="#132236" stroke-width="1" opacity="0.95"/>
  <line x1="56.61" y1="237.64" x2="777.89" y2="240.09" stroke="#6f604d" stroke-width="0.7" opacity="0.6"/>
  <polygon points="702.38,243.24 605.03,242.89 605.03,128.55 702.38,128.26" fill="#5c4d87" stroke="#18283b" stroke-width="1" opacity="1"/>
  <line x1="36.39" y1="241.82" x2="811.39" y2="244.64" stroke="#6f604d" stroke-width="0.7" opacity="0.6"/>
  <line x1="13.01" y1="246.65" x2="850.39" y2="249.94" stroke="#6f604d" stroke-width="0.7" opacity="0.6"/>
  <polygon points="605.03,242.89 659.62,255.63 659.62,118.12 605.03,128.55" fill="#a088c4" stroke="#18283b" stroke-width="1" opacity="1"/>
  <polygon points="659.62,118.12 777.19,117.71 702.38,128.26 605.03,128.55" fill="#a088c4" stroke="#18283b" stroke-width="1" opacity="1"/>
  <polygon points="777.19,256.14 702.38,243.24 702.38,128.26 777.19,117.71" fill="#5c4d87" stroke="#18283b" stroke-width="1" opacity="1"/>
  <line x1="-14.33" y1="252.30" x2="896.35" y2="256.18" stroke="#6f604d" stroke-width="0.7" opacity="0.6"/>
  <polygon points="681.62,230.31 696.87,230.35 696.87,212.42 681.62,212.39" fill="#e8cf82" stroke="#132236" stroke-width="1" opacity="0.95"/>
  <polygon points="681.62,195.85 696.87,195.86 696.87,177.93 681.62,177.93" fill="#e8cf82" stroke="#132236" stroke-width="1" opacity="0.95"/>
  <polygon points="681.62,161.39 696.87,161.38 696.87,143.44 681.62,143.48" fill="#e8cf82" stroke="#132236" stroke-width="1" opacity="0.95"/>
  <polygon points="659.62,255.63 777.19,256.14 777.19,117.71 659.62,118.12" fill="#7d6aa5" stroke="#18283b" stroke-width="1" opacity="1"/>
  <polygon points="710.97,230.39 726.27,230.43 726.27,212.47 710.97,212.44" fill="#e8cf82" stroke="#132236" stroke-width="1" opacity="0.95"/>
  <polygon points="710.97,195.88 726.27,195.89 726.27,177.93 710.97,177.93" fill="#e8cf82" stroke="#132236" stroke-width="1" opacity="0.95"/>
  <polygon points="710.97,161.36 726.27,161.35 726.27,143.38 710.97,143.41" fill="#e8cf82" stroke="#132236" stroke-width="1" opacity="0.95"/>
  <polygon points="740.42,230.48 755.77,230.52 755.77,212.53 740.42,212.50" fill="#e8cf82" stroke="#132236" stroke-width="1" opacity="0.95"/>
  <polygon points="740.42,195.90 755.77,195.92 755.77,177.92 740.42,177.93" fill="#e8cf82" stroke="#132236" stroke-width="1" opacity="0.95"/>
  <polygon points="740.42,161.33 755.77,161.31 755.77,143.32 740.42,143.35" fill="#e8cf82" stroke="#132236" stroke-width="1" opacity="0.95"/>
  <polygon points="408.91,257.23 306.07,256.77 306.07,126.49 408.91,126.18" fill="#396675" stroke="#18283b" stroke-width="1" opacity="1"/>
  <line x1="-46.73" y1="258.99" x2="951.33" y2="263.65" stroke="#6f604d" stroke-width="0.7" opacity="0.6"/>
  <polygon points="306.07,256.77 299.23,274.52 299.23,114.12 306.07,126.49" fill="#6aa2a7" stroke="#18283b" stroke-width="1" opacity="1"/>
  <polygon points="299.23,114.12 425.97,113.64 408.91,126.18 306.07,126.49" fill="#6aa2a7" stroke="#18283b" stroke-width="1" opacity="1"/>
  <polygon points="425.97,275.22 408.91,257.23 408.91,126.18 425.97,113.64" fill="#396675" stroke="#18283b" stroke-width="1" opacity="1"/>
  <line x1="-85.75" y1="267.05" x2="1018.25" y2="272.75" stroke="#6f604d" stroke-width="0.7" opacity="0.6"/>
  <polygon points="322.52,245.02 338.96,245.08 338.96,224.16 322.52,224.11" fill="#e8cf82" stroke="#132236" stroke-width="1" opacity="0.95"/>
  <polygon points="322.52,204.81 338.96,204.84 338.96,183.91 322.52,183.91" fill="#e8cf82" stroke="#132236" stroke-width="1" opacity="0.95"/>
  <polygon points="322.52,164.61 338.96,164.59 338.96,143.66 322.52,143.70" fill="#e8cf82" stroke="#132236" stroke-width="1" opacity="0.95"/>
  <polygon points="299.23,274.52 425.97,275.22 425.97,113.64 299.23,114.12" fill="#4f8290" stroke="#18283b" stroke-width="1" opacity="1"/>
  <polygon points="354.16,245.14 370.66,245.20 370.66,224.24 354.16,224.19" fill="#e8cf82" stroke="#132236" stroke-width="1" opacity="0.95"/>
  <polygon points="354.16,204.86 370.66,204.88 370.66,183.92 354.16,183.91" fill="#e8cf82" stroke="#132236" stroke-width="1" opacity="0.95"/>
  <polygon points="354.16,164.58 370.66,164.56 370.66,143.60 354.16,143.63" fill="#e8cf82" stroke="#132236" stroke-width="1" opacity="0.95"/>
  <polygon points="385.91,245.26 402.47,245.32 402.47,224.32 385.91,224.28" fill="#e8cf82" stroke="#132236" stroke-width="1" opacity="0.95"/>
  <polygon points="385.91,204.90 402.47,204.93 402.47,183.92 385.91,183.92" fill="#e8cf82" stroke="#132236" stroke-width="1" opacity="0.95"/>
  <polygon points="385.91,164.55 402.47,164.53 402.47,143.53 385.91,143.57" fill="#e8cf82" stroke="#132236" stroke-width="1" opacity="0.95"/>
  <line x1="-133.63" y1="276.94" x2="1101.51" y2="284.06" stroke="#6f604d" stroke-width="0.7" opacity="0.6"/>
  <polygon points="800.79,284.17 621.02,283.11 621.02,45.64 800.79,44.27" fill="#ae7738" stroke="#18283b" stroke-width="1" opacity="1"/>
  <line x1="-193.78" y1="289.37" x2="1207.89" y2="298.52" stroke="#6f604d" stroke-width="0.7" opacity="0.6"/>
  <polygon points="262.75,296.10 75.54,294.84 75.54,58.20 262.75,56.86" fill="#a94f39" stroke="#18283b" stroke-width="1" opacity="1"/>
  <polygon points="621.02,283.11 736.62,324.88 736.62,-8.78 621.02,45.64" fill="#e2c16a" stroke="#18283b" stroke-width="1" opacity="1"/>
  <polygon points="736.62,-8.78 991.93,-11.51 800.79,44.27 621.02,45.64" fill="#e2c16a" stroke="#18283b" stroke-width="1" opacity="1"/>
  <polygon points="991.93,326.97 800.79,284.17 800.79,44.27 991.93,-11.51" fill="#ae7738" stroke="#18283b" stroke-width="1" opacity="1"/>
  <line x1="-271.63" y1="305.45" x2="1348.60" y2="317.63" stroke="#6f604d" stroke-width="0.7" opacity="0.6"/>
  <polygon points="75.54,294.84 -40.07,345.88 -40.07,4.07 75.54,58.20" fill="#d88d55" stroke="#18283b" stroke-width="1" opacity="1"/>
  <polygon points="-40.07,4.07 229.83,1.26 262.75,56.86 75.54,58.20" fill="#d88d55" stroke="#18283b" stroke-width="1" opacity="1"/>
  <polygon points="229.83,348.53 262.75,296.10 262.75,56.86 229.83,1.26" fill="#a94f39" stroke="#18283b" stroke-width="1" opacity="1"/>
  <polygon points="784.21,262.92 817.23,263.08 817.23,220.66 784.21,220.58" fill="#e8cf82" stroke="#132236" stroke-width="1" opacity="0.95"/>
  <polygon points="784.21,179.12 817.23,179.12 817.23,136.69 784.21,136.77" fill="#e8cf82" stroke="#132236" stroke-width="1" opacity="0.95"/>
  <polygon points="784.21,95.31 817.23,95.15 817.23,52.73 784.21,52.97" fill="#e8cf82" stroke="#132236" stroke-width="1" opacity="0.95"/>
  <polygon points="736.62,324.88 991.93,326.97 991.93,-11.51 736.62,-8.78" fill="#d1a44e" stroke="#18283b" stroke-width="1" opacity="1"/>
  <polygon points="847.82,263.22 881.08,263.38 881.08,220.80 847.82,220.73" fill="#e8cf82" stroke="#132236" stroke-width="1" opacity="0.95"/>
  <polygon points="847.82,179.11 881.08,179.11 881.08,136.54 847.82,136.62" fill="#e8cf82" stroke="#132236" stroke-width="1" opacity="0.95"/>
  <polygon points="847.82,95.01 881.08,94.85 881.08,52.27 847.82,52.51" fill="#e8cf82" stroke="#132236" stroke-width="1" opacity="0.95"/>
  <polygon points="911.89,263.52 945.39,263.68 945.39,220.95 911.89,220.87" fill="#e8cf82" stroke="#132236" stroke-width="1" opacity="0.95"/>
  <polygon points="911.89,179.11 945.39,179.11 945.39,136.38 911.89,136.46" fill="#e8cf82" stroke="#132236" stroke-width="1" opacity="0.95"/>
  <polygon points="911.89,94.70 945.39,94.54 945.39,51.81 911.89,52.05" fill="#e8cf82" stroke="#132236" stroke-width="1" opacity="0.95"/>
  <line x1="-376.31" y1="327.07" x2="1543.43" y2="344.11" stroke="#6f604d" stroke-width="0.7" opacity="0.6"/>
  <polygon points="8.46,283.18 43.35,283.40 43.35,238.64 8.46,238.51" fill="#e8cf82" stroke="#132236" stroke-width="1" opacity="0.95"/>
  <polygon points="8.46,197.28 43.35,197.32 43.35,152.56 8.46,152.61" fill="#e8cf82" stroke="#132236" stroke-width="1" opacity="0.95"/>
  <polygon points="8.46,111.38 43.35,111.24 43.35,66.48 8.46,66.71" fill="#e8cf82" stroke="#132236" stroke-width="1" opacity="0.95"/>
  <polygon points="-40.07,345.88 229.83,348.53 229.83,1.26 -40.07,4.07" fill="#c86d46" stroke="#18283b" stroke-width="1" opacity="1"/>
  <polygon points="75.68,283.59 110.85,283.81 110.85,238.87 75.68,238.75" fill="#e8cf82" stroke="#132236" stroke-width="1" opacity="0.95"/>
  <polygon points="75.68,197.35 110.85,197.39 110.85,152.45 75.68,152.50" fill="#e8cf82" stroke="#132236" stroke-width="1" opacity="0.95"/>
  <polygon points="75.68,111.11 110.85,110.96 110.85,66.03 75.68,66.26" fill="#e8cf82" stroke="#132236" stroke-width="1" opacity="0.95"/>
  <polygon points="143.44,284.01 178.88,284.22 178.88,239.10 143.44,238.98" fill="#e8cf82" stroke="#132236" stroke-width="1" opacity="0.95"/>
  <polygon points="143.44,197.42 178.88,197.46 178.88,152.34 143.44,152.39" fill="#e8cf82" stroke="#132236" stroke-width="1" opacity="0.95"/>
  <polygon points="143.44,110.83 178.88,110.69 178.88,65.57 143.44,65.81" fill="#e8cf82" stroke="#132236" stroke-width="1" opacity="0.95"/>
  <polygon points="723.84,370.29 624.13,369.22 624.13,266.01 723.84,266.50" fill="#a95a37" stroke="#18283b" stroke-width="1" opacity="1"/>
  <line x1="-524.60" y1="357.70" x2="1831.07" y2="383.19" stroke="#6f604d" stroke-width="0.7" opacity="0.6"/>
  <polygon points="624.13,369.22 690.64,412.85 690.64,285.84 624.13,266.01" fill="#e39a59" stroke="#18283b" stroke-width="1" opacity="1"/>
  <polygon points="690.64,285.84 813.97,286.58 723.84,266.50 624.13,266.01" fill="#e8b36e" stroke="#18283b" stroke-width="1" opacity="1"/>
  <polygon points="813.97,414.47 723.84,370.29 723.84,266.50 813.97,286.58" fill="#a95a37" stroke="#18283b" stroke-width="1" opacity="1"/>
  <polygon points="626.04,411.99 484.17,410.12 484.17,242.76 626.04,243.27" fill="#2d5145" stroke="#18283b" stroke-width="1" opacity="1"/>
  <polygon points="690.64,412.85 813.97,414.47 813.97,286.58 690.64,285.84" fill="#d07b45" stroke="#18283b" stroke-width="1" opacity="1"/>
  <line x1="-750.91" y1="404.45" x2="2298.55" y2="446.71" stroke="#6f604d" stroke-width="0.7" opacity="0.6"/>
  <polygon points="484.17,410.12 538.56,494.41 538.56,265.75 484.17,242.76" fill="#5c8a66" stroke="#18283b" stroke-width="1" opacity="1"/>
  <polygon points="538.56,265.75 733.58,266.70 626.04,243.27 484.17,242.76" fill="#6e9b70" stroke="#18283b" stroke-width="1" opacity="1"/>
  <polygon points="733.58,497.91 626.04,411.99 626.04,243.27 733.58,266.70" fill="#2d5145" stroke="#18283b" stroke-width="1" opacity="1"/>
  <polygon points="538.56,494.41 733.58,497.91 733.58,266.70 538.56,265.75" fill="#406a58" stroke="#18283b" stroke-width="1" opacity="1"/>
  <line x1="-1138.81" y1="484.58" x2="3191.20" y2="568.00" stroke="#6f604d" stroke-width="0.7" opacity="0.6"/>
  <line x1="-1957.40" y1="653.67" x2="5572.94" y2="891.62" stroke="#6f604d" stroke-width="0.7" opacity="0.6"/>
  <text x="18" y="30" fill="#173044" font-family="sans-serif" font-size="14" opacity="0.82">PHASE 7C CONTROLLED SYNTHETIC SCENE</text>
</svg>
