<?xml version="1.0" encoding="UTF-8"?>
<svg xmlns="http://www.w3.org/2000/svg" width="640" height="360" viewBox="0 0 640 360">
  <defs>
    <linearGradient id="sky" x1="0" y1="0" x2="0" y2="1">
      <stop offset="0%" stop-color="#9ed4e5"/>
      <stop offset="100%" stop-color="#f0c889"/>
    </linearGradient>
  </defs>
  <rect width="640" height="360" fill="url(#sky)"/>
  <circle cx="535" cy="72" r="30" fill="#ffe4a1" opacity="0.9"/>
  <line x1="44.27" y1="218.77" x2="513.73" y2="218.13" stroke="#6f604d" stroke-width="0.7" opacity="0.6"/>
  <line x1="31.59" y1="220.61" x2="523.24" y2="219.92" stroke="#6f604d" stroke-width="0.7" opacity="0.6"/>
  <line x1="17.65" y1="222.64" x2="533.69" y2="221.87" stroke="#6f604d" stroke-width="0.7" opacity="0.6"/>
  <line x1="2.24" y1="224.89" x2="545.21" y2="224.04" stroke="#6f604d" stroke-width="0.7" opacity="0.6"/>
  <line x1="-14.88" y1="227.38" x2="557.99" y2="226.43" stroke="#6f604d" stroke-width="0.7" opacity="0.6"/>
  <line x1="-34.01" y1="230.17" x2="572.24" y2="229.11" stroke="#6f604d" stroke-width="0.7" opacity="0.6"/>
  <polygon points="454.72,230.20 333.11,230.41 333.11,83.76 454.72,84.17" fill="#934743" stroke="#18283b" stroke-width="1" opacity="1"/>
  <line x1="-55.54" y1="233.30" x2="588.24" y2="232.11" stroke="#6f604d" stroke-width="0.7" opacity="0.6"/>
  <polygon points="482.98,240.03 454.72,230.20 454.72,84.17 482.98,65.40" fill="#934743" stroke="#18283b" stroke-width="1" opacity="1"/>
  <polygon points="337.57,64.81 482.98,65.40 454.72,84.17 333.11,83.76" fill="#db8a6d" stroke="#18283b" stroke-width="1" opacity="1"/>
  <polygon points="333.11,230.41 337.57,240.34 337.57,64.81 333.11,83.76" fill="#db8a6d" stroke="#18283b" stroke-width="1" opacity="1"/>
  <line x1="-79.94" y1="236.86" x2="606.31" y2="235.50" stroke="#6f604d" stroke-width="0.7" opacity="0.6"/>
  <polygon points="223.82,238.13 88.88,238.40 88.88,86.20 223.82,86.64" fill="#4c765b" stroke="#18283b" stroke-width="1" opacity="1"/>
  <polygon points="439.26,205.16 454.50,205.15 454.50,187.65 439.26,187.66" fill="#e8cf82" stroke="#132236" stroke-width="1" opacity="0.95"/>
  <polygon points="439.26,161.40 454.50,161.41 454.50,143.92 439.26,143.90" fill="#e8cf82" stroke="#132236" stroke-width="1" opacity="0.95"/>
  <polygon points="439.26,117.64 454.50,117.67 454.50,100.18 439.26,100.13" fill="#e8cf82" stroke="#132236" stroke-width="1" opacity="0.95"/>
  <polygon points="337.57,240.34 482.98,240.03 482.98,65.40 337.57,64.81" fill="#bf625b" stroke="#18283b" stroke-width="1" opacity="1"/>
  <polygon points="402.90,205.20 418.18,205.18 418.18,187.66 402.90,187.67" fill="#e8cf82" stroke="#132236" stroke-width="1" opacity="0.95"/>
  <polygon points="402.90,161.38 418.18,161.39 418.18,143.87 402.90,143.85" fill="#e8cf82" stroke="#132236" stroke-width="1" opacity="0.95"/>
  <polygon points="402.90,117.56 418.18,117.59 418.18,100.07 402.90,100.03" fill="#e8cf82" stroke="#132236" stroke-width="1" opacity="0.95"/>
  <polygon points="366.45,205.23 381.77,205.21 381.77,187.67 366.45,187.68" fill="#e8cf82" stroke="#132236" stroke-width="1" opacity="0.95"/>
  <polygon points="366.45,161.35 381.77,161.36 381.77,143.82 366.45,143.80" fill="#e8cf82" stroke="#132236" stroke-width="1" opacity="0.95"/>
  <polygon points="366.45,117.48 381.77,117.51 381.77,99.97 366.45,99.93" fill="#e8cf82" stroke="#132236" stroke-width="1" opacity="0.95"/>
  <line x1="-107.82" y1="240.92" x2="626.90" y2="239.36" stroke="#6f604d" stroke-width="0.7" opacity="0.6"/>
  <polygon points="205.30,250.55 223.82,238.13 223.82,86.64 205.30,66.69" fill="#4c765b" stroke="#18283b" stroke-width="1" opacity="1"/>
  <polygon points="41.25,66.04 205.30,66.69 223.82,86.64 88.88,86.20" fill="#9bbd83" stroke="#18283b" stroke-width="1" opacity="1"/>
  <polygon points="88.88,238.40 41.25,250.96 41.25,66.04 88.88,86.20" fill="#9bbd83" stroke="#18283b" stroke-width="1" opacity="1"/>
  <line x1="-139.99" y1="245.60" x2="650.57" y2="243.80" stroke="#6f604d" stroke-width="0.7" opacity="0.6"/>
  <line x1="-177.52" y1="251.07" x2="678.07" y2="248.96" stroke="#6f604d" stroke-width="0.7" opacity="0.6"/>
  <polygon points="155.27,214.94 173.37,214.92 173.37,194.35 155.27,194.36" fill="#e8cf82" stroke="#132236" stroke-width="1" opacity="0.95"/>
  <polygon points="155.27,168.85 173.37,168.86 173.37,148.29 155.27,148.27" fill="#e8cf82" stroke="#132236" stroke-width="1" opacity="0.95"/>
  <polygon points="155.27,122.76 173.37,122.80 173.37,102.23 155.27,102.18" fill="#e8cf82" stroke="#132236" stroke-width="1" opacity="0.95"/>
  <polygon points="41.25,250.96 205.30,250.55 205.30,66.69 41.25,66.04" fill="#6c9b75" stroke="#18283b" stroke-width="1" opacity="1"/>
  <polygon points="114.25,214.99 132.40,214.97 132.40,194.38 114.25,194.38" fill="#e8cf82" stroke="#132236" stroke-width="1" opacity="0.95"/>
  <polygon points="114.25,168.84 132.40,168.84 132.40,148.25 114.25,148.23" fill="#e8cf82" stroke="#132236" stroke-width="1" opacity="0.95"/>
  <polygon points="114.25,122.68 132.40,122.71 132.40,102.12 114.25,102.07" fill="#e8cf82" stroke="#132236" stroke-width="1" opacity="0.95"/>
  <polygon points="73.11,215.04 91.31,215.02 91.31,194.40 73.11,194.40" fill="#e8cf82" stroke="#132236" stroke-width="1" opacity="0.95"/>
  <polygon points="73.11,168.82 91.31,168.83 91.31,148.20 73.11,148.18" fill="#e8cf82" stroke="#132236" stroke-width="1" opacity="0.95"/>
  <polygon points="73.11,122.60 91.31,122.63 91.31,102.00 73.11,101.96" fill="#e8cf82" stroke="#132236" stroke-width="1" opacity="0.95"/>
  <polygon points="589.78,253.83 478.55,254.12 478.55,119.35 589.78,119.59" fill="#5c4d87" stroke="#18283b" stroke-width="1" opacity="1"/>
  <line x1="-221.88" y1="257.53" x2="710.40" y2="255.02" stroke="#6f604d" stroke-width="0.7" opacity="0.6"/>
  <polygon points="658.68,272.05 589.78,253.83 589.78,119.59 658.68,104.69" fill="#5c4d87" stroke="#18283b" stroke-width="1" opacity="1"/>
  <polygon points="520.23,104.32 658.68,104.69 589.78,119.59 478.55,119.35" fill="#a088c4" stroke="#18283b" stroke-width="1" opacity="1"/>
  <polygon points="478.55,254.12 520.23,272.50 520.23,104.32 478.55,119.35" fill="#a088c4" stroke="#18283b" stroke-width="1" opacity="1"/>
  <line x1="-275.10" y1="265.28" x2="748.98" y2="262.26" stroke="#6f604d" stroke-width="0.7" opacity="0.6"/>
  <polygon points="520.23,272.50 658.68,272.05 658.68,104.69 520.23,104.32" fill="#7d6aa5" stroke="#18283b" stroke-width="1" opacity="1"/>
  <polygon points="615.61,241.26 633.59,241.22 633.59,219.42 615.61,219.44" fill="#e8cf82" stroke="#132236" stroke-width="1" opacity="0.95"/>
  <polygon points="615.61,199.30 633.59,199.29 633.59,177.48 615.61,177.48" fill="#e8cf82" stroke="#132236" stroke-width="1" opacity="0.95"/>
  <polygon points="615.61,157.34 633.59,157.36 633.59,135.55 615.61,135.52" fill="#e8cf82" stroke="#132236" stroke-width="1" opacity="0.95"/>
  <polygon points="580.97,241.33 599.00,241.30 599.00,219.46 580.97,219.49" fill="#e8cf82" stroke="#132236" stroke-width="1" opacity="0.95"/>
  <polygon points="580.97,199.32 599.00,199.31 599.00,177.48 580.97,177.48" fill="#e8cf82" stroke="#132236" stroke-width="1" opacity="0.95"/>
  <polygon points="580.97,157.31 599.00,157.33 599.00,135.50 580.97,135.47" fill="#e8cf82" stroke="#132236" stroke-width="1" opacity="0.95"/>
  <polygon points="546.25,241.41 564.32,241.37 564.32,219.51 546.25,219.54" fill="#e8cf82" stroke="#132236" stroke-width="1" opacity="0.95"/>
  <polygon points="546.25,199.35 564.32,199.34 564.32,177.48 546.25,177.48" fill="#e8cf82" stroke="#132236" stroke-width="1" opacity="0.95"/>
  <polygon points="546.25,157.29 564.32,157.30 564.32,135.44 546.25,135.41" fill="#e8cf82" stroke="#132236" stroke-width="1" opacity="0.95"/>
  <line x1="-340.15" y1="274.75" x2="795.78" y2="271.04" stroke="#6f604d" stroke-width="0.7" opacity="0.6"/>
  <polygon points="206.21,277.78 74.73,278.23 74.73,111.53 206.21,111.85" fill="#396675" stroke="#18283b" stroke-width="1" opacity="1"/>
  <line x1="-421.46" y1="286.60" x2="853.77" y2="281.92" stroke="#6f604d" stroke-width="0.7" opacity="0.6"/>
  <polygon points="173.42,308.54 206.21,277.78 206.21,111.85 173.42,90.41" fill="#396675" stroke="#18283b" stroke-width="1" opacity="1"/>
  <polygon points="0.13,89.87 173.42,90.41 206.21,111.85 74.73,111.53" fill="#6aa2a7" stroke="#18283b" stroke-width="1" opacity="1"/>
  <polygon points="74.73,278.23 0.13,309.32 0.13,89.87 74.73,111.53" fill="#6aa2a7" stroke="#18283b" stroke-width="1" opacity="1"/>
  <line x1="-525.99" y1="301.82" x2="927.51" y2="295.75" stroke="#6f604d" stroke-width="0.7" opacity="0.6"/>
  <polygon points="0.13,309.32 173.42,308.54 173.42,90.41 0.13,89.87" fill="#4f8290" stroke="#18283b" stroke-width="1" opacity="1"/>
  <polygon points="118.71,268.51 141.21,268.44 141.21,240.00 118.71,240.05" fill="#e8cf82" stroke="#132236" stroke-width="1" opacity="0.95"/>
  <polygon points="118.71,213.78 141.21,213.75 141.21,185.31 118.71,185.32" fill="#e8cf82" stroke="#132236" stroke-width="1" opacity="0.95"/>
  <polygon points="118.71,159.04 141.21,159.06 141.21,130.62 118.71,130.58" fill="#e8cf82" stroke="#132236" stroke-width="1" opacity="0.95"/>
  <polygon points="75.34,268.65 97.91,268.58 97.91,240.10 75.34,240.14" fill="#e8cf82" stroke="#132236" stroke-width="1" opacity="0.95"/>
  <polygon points="75.34,213.83 97.91,213.80 97.91,185.32 75.34,185.33" fill="#e8cf82" stroke="#132236" stroke-width="1" opacity="0.95"/>
  <polygon points="75.34,159.01 97.91,159.03 97.91,130.55 75.34,130.51" fill="#e8cf82" stroke="#132236" stroke-width="1" opacity="0.95"/>
  <polygon points="31.84,268.78 54.48,268.71 54.48,240.19 31.84,240.23" fill="#e8cf82" stroke="#132236" stroke-width="1" opacity="0.95"/>
  <polygon points="31.84,213.88 54.48,213.86 54.48,185.33 31.84,185.33" fill="#e8cf82" stroke="#132236" stroke-width="1" opacity="0.95"/>
  <polygon points="31.84,158.98 54.48,159.00 54.48,130.47 31.84,130.43" fill="#e8cf82" stroke="#132236" stroke-width="1" opacity="0.95"/>
  <line x1="-665.36" y1="322.12" x2="1024.39" y2="313.92" stroke="#6f604d" stroke-width="0.7" opacity="0.6"/>
  <polygon points="650.47,318.80 415.76,319.96 415.76,-2.38 650.47,-0.86" fill="#ae7738" stroke="#18283b" stroke-width="1" opacity="1"/>
  <line x1="-860.45" y1="350.53" x2="1157.37" y2="338.87" stroke="#6f604d" stroke-width="0.7" opacity="0.6"/>
  <polygon points="866.20,406.87 650.47,318.80 650.47,-0.86 866.20,-115.61" fill="#ae7738" stroke="#18283b" stroke-width="1" opacity="1"/>
  <polygon points="483.50,-119.69 866.20,-115.61 650.47,-0.86 415.76,-2.38" fill="#e2c16a" stroke="#18283b" stroke-width="1" opacity="1"/>
  <polygon points="415.76,319.96 483.50,409.99 483.50,-119.69 415.76,-2.38" fill="#e2c16a" stroke="#18283b" stroke-width="1" opacity="1"/>
  <polygon points="-149.60,354.12 -442.15,355.89 -442.15,-6.55 -149.60,-4.68" fill="#a94f39" stroke="#18283b" stroke-width="1" opacity="1"/>
  <line x1="-1153.06" y1="393.15" x2="1351.22" y2="375.23" stroke="#6f604d" stroke-width="0.7" opacity="0.6"/>
  <polygon points="-552.18,506.49 -149.60,354.12 -149.60,-4.68 -552.18,-166.28" fill="#a94f39" stroke="#18283b" stroke-width="1" opacity="1"/>
  <polygon points="748.17,310.22 797.74,309.98 797.74,243.61 748.17,243.72" fill="#e8cf82" stroke="#132236" stroke-width="1" opacity="0.95"/>
  <polygon points="748.17,178.61 797.74,178.62 797.74,112.24 748.17,112.12" fill="#e8cf82" stroke="#132236" stroke-width="1" opacity="0.95"/>
  <polygon points="748.17,47.01 797.74,47.25 797.74,-19.13 748.17,-19.48" fill="#e8cf82" stroke="#132236" stroke-width="1" opacity="0.95"/>
  <polygon points="483.50,409.99 866.20,406.87 866.20,-115.61 483.50,-119.69" fill="#d1a44e" stroke="#18283b" stroke-width="1" opacity="1"/>
  <polygon points="-1113.38,-172.94 -552.18,-166.28 -149.60,-4.68 -442.15,-6.55" fill="#d88d55" stroke="#18283b" stroke-width="1" opacity="1"/>
  <polygon points="652.36,310.66 702.26,310.43 702.26,243.83 652.36,243.94" fill="#e8cf82" stroke="#132236" stroke-width="1" opacity="0.95"/>
  <polygon points="652.36,178.61 702.26,178.61 702.26,112.01 652.36,111.89" fill="#e8cf82" stroke="#132236" stroke-width="1" opacity="0.95"/>
  <polygon points="652.36,46.56 702.26,46.79 702.26,-19.81 652.36,-20.17" fill="#e8cf82" stroke="#132236" stroke-width="1" opacity="0.95"/>
  <polygon points="555.88,311.11 606.13,310.88 606.13,244.05 555.88,244.16" fill="#e8cf82" stroke="#132236" stroke-width="1" opacity="0.95"/>
  <polygon points="555.88,178.61 606.13,178.61 606.13,111.78 555.88,111.65" fill="#e8cf82" stroke="#132236" stroke-width="1" opacity="0.95"/>
  <polygon points="555.88,46.10 606.13,46.34 606.13,-20.50 555.88,-20.86" fill="#e8cf82" stroke="#132236" stroke-width="1" opacity="0.95"/>
  <polygon points="-442.15,355.89 -1113.38,512.77 -1113.38,-172.94 -442.15,-6.55" fill="#d88d55" stroke="#18283b" stroke-width="1" opacity="1"/>
  <line x1="-1640.62" y1="464.15" x2="1660.16" y2="433.18" stroke="#6f604d" stroke-width="0.7" opacity="0.6"/>
  <polygon points="-731.44,384.17 -658.84,383.67 -658.84,295.50 -731.44,295.79" fill="#e8cf82" stroke="#132236" stroke-width="1" opacity="0.95"/>
  <polygon points="-731.44,214.20 -658.84,214.11 -658.84,125.94 -731.44,125.81" fill="#e8cf82" stroke="#132236" stroke-width="1" opacity="0.95"/>
  <polygon points="-731.44,44.22 -658.84,44.55 -658.84,-43.62 -731.44,-44.17" fill="#e8cf82" stroke="#132236" stroke-width="1" opacity="0.95"/>
  <polygon points="-1113.38,512.77 -552.18,506.49 -552.18,-166.28 -1113.38,-172.94" fill="#c86d46" stroke="#18283b" stroke-width="1" opacity="1"/>
  <polygon points="-872.08,385.15 -798.78,384.64 -798.78,296.05 -872.08,296.34" fill="#e8cf82" stroke="#132236" stroke-width="1" opacity="0.95"/>
  <polygon points="-872.08,214.36 -798.78,214.27 -798.78,125.68 -872.08,125.55" fill="#e8cf82" stroke="#132236" stroke-width="1" opacity="0.95"/>
  <polygon points="-872.08,43.57 -798.78,43.91 -798.78,-44.69 -872.08,-45.25" fill="#e8cf82" stroke="#132236" stroke-width="1" opacity="0.95"/>
  <polygon points="-1014.08,386.14 -940.07,385.63 -940.07,296.61 -1014.08,296.90" fill="#e8cf82" stroke="#132236" stroke-width="1" opacity="0.95"/>
  <polygon points="-1014.08,214.52 -940.07,214.44 -940.07,125.42 -1014.08,125.29" fill="#e8cf82" stroke="#132236" stroke-width="1" opacity="0.95"/>
  <polygon points="-1014.08,42.91 -940.07,43.25 -940.07,-45.76 -1014.08,-46.33" fill="#e8cf82" stroke="#132236" stroke-width="1" opacity="0.95"/>
  <polygon points="319.95,559.85 122.94,562.50 122.94,353.86 319.95,352.66" fill="#a95a37" stroke="#18283b" stroke-width="1" opacity="1"/>
  <line x1="-2615.33" y1="606.11" x2="2229.93" y2="540.06" stroke="#6f604d" stroke-width="0.7" opacity="0.6"/>
  <polygon points="325.68,788.98 319.95,559.85 319.95,352.66 325.68,456.81" fill="#a95a37" stroke="#18283b" stroke-width="1" opacity="1"/>
  <polygon points="8.57,459.91 325.68,456.81 319.95,352.66 122.94,353.86" fill="#e8b36e" stroke="#18283b" stroke-width="1" opacity="1"/>
  <polygon points="122.94,562.50 8.57,795.80 8.57,459.91 122.94,353.86" fill="#e39a59" stroke="#18283b" stroke-width="1" opacity="1"/>
  <polygon points="8.57,795.80 325.68,788.98 325.68,456.81 8.57,459.91" fill="#d07b45" stroke="#18283b" stroke-width="1" opacity="1"/>
  <polygon points="-162.21,799.47 -549.10,807.79 -549.10,351.22 -162.21,348.95" fill="#2d5145" stroke="#18283b" stroke-width="1" opacity="1"/>
  <line x1="-5536.15" y1="1031.50" x2="3632.16" y2="803.10" stroke="#6f604d" stroke-width="0.7" opacity="0.6"/>
  <polygon points="-1388.99,2407.31 -162.21,799.47 -162.21,348.95 -1388.99,787.45" fill="#2d5145" stroke="#18283b" stroke-width="1" opacity="1"/>
  <polygon points="-2891.68,817.84 -1388.99,787.45 -162.21,348.95 -549.10,351.22" fill="#6e9b70" stroke="#18283b" stroke-width="1" opacity="1"/>
  <polygon points="-549.10,807.79 -2891.68,2518.75 -2891.68,817.84 -549.10,351.22" fill="#5c8a66" stroke="#18283b" stroke-width="1" opacity="1"/>
  <polygon points="-2891.68,2518.75 -1388.99,2407.31 -1388.99,787.45 -2891.68,817.84" fill="#406a58" stroke="#18283b" stroke-width="1" opacity="1"/>
  <text x="18" y="30" fill="#173044" font-family="sans-serif" font-size="14" opacity="0.82">PHASE 7C CONTROLLED SYNTHETIC SCENE</text>
</svg>
