<?xml version="1.0" encoding="UTF-8"?>
<svg xmlns="http://www.w3.org/2000/svg" width="640" height="360" viewBox="0 0 640 360">
  <defs>
    <linearGradient id="sky" x1="0" y1="0" x2="0" y2="1">
      <stop offset="0%" stop-color="#9ed4e5"/>
      <stop offset="100%" stop-color="#f0c889"/>
    </linearGradient>
  </defs>
  <rect width="640" height="360" fill="url(#sky)"/>
  <circle cx="535" cy="72" r="30" fill="#ffe4a1" opacity="0.9"/>
  <line x1="49.90" y1="218.56" x2="517.12" y2="217.99" stroke="#6f604d" stroke-width="0.7" opacity="0.6"/>
  <line x1="37.51" y1="220.38" x2="526.70" y2="219.76" stroke="#6f604d" stroke-width="0.7" opacity="0.6"/>
  <line x1="23.90" y1="222.39" x2="537.23" y2="221.71" stroke="#6f604d" stroke-width="0.7" opacity="0.6"/>
  <line x1="8.86" y1="224.61" x2="548.84" y2="223.85" stroke="#6f604d" stroke-width="0.7" opacity="0.6"/>
  <line x1="-7.84" y1="227.07" x2="561.70" y2="226.23" stroke="#6f604d" stroke-width="0.7" opacity="0.6"/>
  <line x1="-26.49" y1="229.82" x2="576.04" y2="228.88" stroke="#6f604d" stroke-width="0.7" opacity="0.6"/>
  <polygon points="459.05,229.94 338.08,230.13 338.08,84.30 459.05,84.66" fill="#934743" stroke="#18283b" stroke-width="1" opacity="1"/>
  <line x1="-47.46" y1="232.91" x2="592.13" y2="231.85" stroke="#6f604d" stroke-width="0.7" opacity="0.6"/>
  <polygon points="487.78,239.66 459.05,229.94 459.05,84.66 487.78,66.10" fill="#934743" stroke="#18283b" stroke-width="1" opacity="1"/>
  <polygon points="343.28,65.58 487.78,66.10 459.05,84.66 338.08,84.30" fill="#db8a6d" stroke="#18283b" stroke-width="1" opacity="1"/>
  <polygon points="338.08,230.13 343.28,239.93 343.28,65.58 338.08,84.30" fill="#db8a6d" stroke="#18283b" stroke-width="1" opacity="1"/>
  <line x1="-71.19" y1="236.41" x2="610.29" y2="235.21" stroke="#6f604d" stroke-width="0.7" opacity="0.6"/>
  <polygon points="230.14,237.73 96.27,237.97 96.27,86.90 230.14,87.29" fill="#4c765b" stroke="#18283b" stroke-width="1" opacity="1"/>
  <polygon points="444.32,205.00 459.47,204.99 459.47,187.61 444.32,187.61" fill="#e8cf82" stroke="#132236" stroke-width="1" opacity="0.95"/>
  <polygon points="444.32,161.52 459.47,161.53 459.47,144.14 444.32,144.12" fill="#e8cf82" stroke="#132236" stroke-width="1" opacity="0.95"/>
  <polygon points="444.32,118.03 459.47,118.06 459.47,100.68 444.32,100.64" fill="#e8cf82" stroke="#132236" stroke-width="1" opacity="0.95"/>
  <polygon points="343.28,239.93 487.78,239.66 487.78,66.10 343.28,65.58" fill="#bf625b" stroke="#18283b" stroke-width="1" opacity="1"/>
  <polygon points="408.19,205.03 423.37,205.02 423.37,187.61 408.19,187.62" fill="#e8cf82" stroke="#132236" stroke-width="1" opacity="0.95"/>
  <polygon points="408.19,161.50 423.37,161.51 423.37,144.10 408.19,144.08" fill="#e8cf82" stroke="#132236" stroke-width="1" opacity="0.95"/>
  <polygon points="408.19,117.96 423.37,117.99 423.37,100.59 408.19,100.55" fill="#e8cf82" stroke="#132236" stroke-width="1" opacity="0.95"/>
  <polygon points="371.97,205.06 387.19,205.05 387.19,187.62 371.97,187.63" fill="#e8cf82" stroke="#132236" stroke-width="1" opacity="0.95"/>
  <polygon points="371.97,161.48 387.19,161.49 387.19,144.06 371.97,144.04" fill="#e8cf82" stroke="#132236" stroke-width="1" opacity="0.95"/>
  <polygon points="371.97,117.89 387.19,117.92 387.19,100.50 371.97,100.46" fill="#e8cf82" stroke="#132236" stroke-width="1" opacity="0.95"/>
  <line x1="-98.29" y1="240.40" x2="630.97" y2="239.03" stroke="#6f604d" stroke-width="0.7" opacity="0.6"/>
  <polygon points="212.90,249.96 230.14,237.73 230.14,87.29 212.90,67.64" fill="#4c765b" stroke="#18283b" stroke-width="1" opacity="1"/>
  <polygon points="50.42,67.06 212.90,67.64 230.14,87.29 96.27,86.90" fill="#9bbd83" stroke="#18283b" stroke-width="1" opacity="1"/>
  <polygon points="96.27,237.97 50.42,250.32 50.42,67.06 96.27,86.90" fill="#9bbd83" stroke="#18283b" stroke-width="1" opacity="1"/>
  <line x1="-129.52" y1="245.00" x2="654.73" y2="243.42" stroke="#6f604d" stroke-width="0.7" opacity="0.6"/>
  <line x1="-165.90" y1="250.37" x2="682.30" y2="248.51" stroke="#6f604d" stroke-width="0.7" opacity="0.6"/>
  <polygon points="163.33,214.64 181.26,214.63 181.26,194.23 163.33,194.24" fill="#e8cf82" stroke="#132236" stroke-width="1" opacity="0.95"/>
  <polygon points="163.33,168.95 181.26,168.95 181.26,148.56 163.33,148.54" fill="#e8cf82" stroke="#132236" stroke-width="1" opacity="0.95"/>
  <polygon points="163.33,123.25 181.26,123.28 181.26,102.89 163.33,102.85" fill="#e8cf82" stroke="#132236" stroke-width="1" opacity="0.95"/>
  <polygon points="50.42,250.32 212.90,249.96 212.90,67.64 50.42,67.06" fill="#6c9b75" stroke="#18283b" stroke-width="1" opacity="1"/>
  <polygon points="122.70,214.69 140.68,214.67 140.68,194.25 122.70,194.26" fill="#e8cf82" stroke="#132236" stroke-width="1" opacity="0.95"/>
  <polygon points="122.70,168.93 140.68,168.94 140.68,148.52 122.70,148.50" fill="#e8cf82" stroke="#132236" stroke-width="1" opacity="0.95"/>
  <polygon points="122.70,123.18 140.68,123.21 140.68,102.79 122.70,102.75" fill="#e8cf82" stroke="#132236" stroke-width="1" opacity="0.95"/>
  <polygon points="81.97,214.73 99.99,214.71 99.99,194.27 81.97,194.28" fill="#e8cf82" stroke="#132236" stroke-width="1" opacity="0.95"/>
  <polygon points="81.97,168.92 99.99,168.93 99.99,148.48 81.97,148.46" fill="#e8cf82" stroke="#132236" stroke-width="1" opacity="0.95"/>
  <polygon points="81.97,123.11 99.99,123.14 99.99,102.69 81.97,102.65" fill="#e8cf82" stroke="#132236" stroke-width="1" opacity="0.95"/>
  <polygon points="594.71,253.29 484.25,253.55 484.25,119.82 594.71,120.03" fill="#5c4d87" stroke="#18283b" stroke-width="1" opacity="1"/>
  <line x1="-208.83" y1="256.69" x2="714.69" y2="254.50" stroke="#6f604d" stroke-width="0.7" opacity="0.6"/>
  <polygon points="663.95,271.21 594.71,253.29 594.71,120.03 663.95,105.37" fill="#5c4d87" stroke="#18283b" stroke-width="1" opacity="1"/>
  <polygon points="526.67,105.05 663.95,105.37 594.71,120.03 484.25,119.82" fill="#a088c4" stroke="#18283b" stroke-width="1" opacity="1"/>
  <polygon points="484.25,253.55 526.67,271.61 526.67,105.05 484.25,119.82" fill="#a088c4" stroke="#18283b" stroke-width="1" opacity="1"/>
  <line x1="-260.24" y1="264.27" x2="753.28" y2="261.63" stroke="#6f604d" stroke-width="0.7" opacity="0.6"/>
  <polygon points="526.67,271.61 663.95,271.21 663.95,105.37 526.67,105.05" fill="#7d6aa5" stroke="#18283b" stroke-width="1" opacity="1"/>
  <polygon points="621.24,240.69 639.07,240.66 639.07,219.05 621.24,219.08" fill="#e8cf82" stroke="#132236" stroke-width="1" opacity="0.95"/>
  <polygon points="621.24,199.12 639.07,199.11 639.07,177.51 621.24,177.51" fill="#e8cf82" stroke="#132236" stroke-width="1" opacity="0.95"/>
  <polygon points="621.24,157.55 639.07,157.57 639.07,135.96 621.24,135.94" fill="#e8cf82" stroke="#132236" stroke-width="1" opacity="0.95"/>
  <polygon points="586.89,240.76 604.76,240.72 604.76,219.10 586.89,219.12" fill="#e8cf82" stroke="#132236" stroke-width="1" opacity="0.95"/>
  <polygon points="586.89,199.14 604.76,199.13 604.76,177.50 586.89,177.50" fill="#e8cf82" stroke="#132236" stroke-width="1" opacity="0.95"/>
  <polygon points="586.89,157.53 604.76,157.54 604.76,135.91 586.89,135.89" fill="#e8cf82" stroke="#132236" stroke-width="1" opacity="0.95"/>
  <polygon points="552.47,240.82 570.38,240.79 570.38,219.14 552.47,219.16" fill="#e8cf82" stroke="#132236" stroke-width="1" opacity="0.95"/>
  <polygon points="552.47,199.16 570.38,199.15 570.38,177.50 552.47,177.50" fill="#e8cf82" stroke="#132236" stroke-width="1" opacity="0.95"/>
  <polygon points="552.47,157.50 570.38,157.52 570.38,135.86 552.47,135.84" fill="#e8cf82" stroke="#132236" stroke-width="1" opacity="0.95"/>
  <line x1="-322.92" y1="273.51" x2="800.04" y2="270.26" stroke="#6f604d" stroke-width="0.7" opacity="0.6"/>
  <polygon points="216.29,276.67 86.46,277.06 86.46,112.35 216.29,112.62" fill="#396675" stroke="#18283b" stroke-width="1" opacity="1"/>
  <line x1="-401.03" y1="285.03" x2="857.87" y2="280.95" stroke="#6f604d" stroke-width="0.7" opacity="0.6"/>
  <polygon points="186.79,306.62 216.29,276.67 216.29,112.62 186.79,91.75" fill="#396675" stroke="#18283b" stroke-width="1" opacity="1"/>
  <polygon points="16.36,91.27 186.79,91.75 216.29,112.62 86.46,112.35" fill="#6aa2a7" stroke="#18283b" stroke-width="1" opacity="1"/>
  <polygon points="86.46,277.06 16.36,307.30 16.36,91.27 86.46,112.35" fill="#6aa2a7" stroke="#18283b" stroke-width="1" opacity="1"/>
  <line x1="-501.09" y1="299.77" x2="931.22" y2="294.50" stroke="#6f604d" stroke-width="0.7" opacity="0.6"/>
  <polygon points="16.36,307.30 186.79,306.62 186.79,91.75 16.36,91.27" fill="#4f8290" stroke="#18283b" stroke-width="1" opacity="1"/>
  <polygon points="132.98,267.17 155.12,267.11 155.12,239.10 132.98,239.14" fill="#e8cf82" stroke="#132236" stroke-width="1" opacity="0.95"/>
  <polygon points="132.98,213.27 155.12,213.24 155.12,185.23 132.98,185.24" fill="#e8cf82" stroke="#132236" stroke-width="1" opacity="0.95"/>
  <polygon points="132.98,159.36 155.12,159.38 155.12,131.36 132.98,131.33" fill="#e8cf82" stroke="#132236" stroke-width="1" opacity="0.95"/>
  <polygon points="90.33,267.29 112.52,267.23 112.52,239.18 90.33,239.22" fill="#e8cf82" stroke="#132236" stroke-width="1" opacity="0.95"/>
  <polygon points="90.33,213.31 112.52,213.29 112.52,185.24 90.33,185.24" fill="#e8cf82" stroke="#132236" stroke-width="1" opacity="0.95"/>
  <polygon points="90.33,159.33 112.52,159.35 112.52,131.30 90.33,131.27" fill="#e8cf82" stroke="#132236" stroke-width="1" opacity="0.95"/>
  <polygon points="47.56,267.41 69.81,267.35 69.81,239.26 47.56,239.30" fill="#e8cf82" stroke="#132236" stroke-width="1" opacity="0.95"/>
  <polygon points="47.56,213.36 69.81,213.33 69.81,185.25 47.56,185.25" fill="#e8cf82" stroke="#132236" stroke-width="1" opacity="0.95"/>
  <polygon points="47.56,159.31 69.81,159.32 69.81,131.23 47.56,131.20" fill="#e8cf82" stroke="#132236" stroke-width="1" opacity="0.95"/>
  <line x1="-633.84" y1="319.34" x2="1027.32" y2="312.25" stroke="#6f604d" stroke-width="0.7" opacity="0.6"/>
  <polygon points="657.75,316.82 426.39,317.83 426.39,0.41 657.75,1.72" fill="#ae7738" stroke="#18283b" stroke-width="1" opacity="1"/>
  <line x1="-818.43" y1="346.55" x2="1158.69" y2="336.53" stroke="#6f604d" stroke-width="0.7" opacity="0.6"/>
  <polygon points="872.39,401.62 657.75,316.82 657.75,1.72 872.39,-108.78" fill="#ae7738" stroke="#18283b" stroke-width="1" opacity="1"/>
  <polygon points="498.47,-112.25 872.39,-108.78 657.75,1.72 426.39,0.41" fill="#e2c16a" stroke="#18283b" stroke-width="1" opacity="1"/>
  <polygon points="426.39,317.83 498.47,404.28 498.47,-112.25 426.39,0.41" fill="#e2c16a" stroke="#18283b" stroke-width="1" opacity="1"/>
  <polygon points="-125.00,350.46 -410.32,351.97 -410.32,-2.39 -125.00,-0.79" fill="#a94f39" stroke="#18283b" stroke-width="1" opacity="1"/>
  <line x1="-1092.61" y1="386.97" x2="1349.11" y2="371.71" stroke="#6f604d" stroke-width="0.7" opacity="0.6"/>
  <polygon points="-492.17,493.84 -125.00,350.46 -125.00,-0.79 -492.17,-152.86" fill="#a94f39" stroke="#18283b" stroke-width="1" opacity="1"/>
  <polygon points="-1027.48,-158.34 -492.17,-152.86 -125.00,-0.79 -410.32,-2.39" fill="#d88d55" stroke="#18283b" stroke-width="1" opacity="1"/>
  <polygon points="498.47,404.28 872.39,401.62 872.39,-108.78 498.47,-112.25" fill="#d1a44e" stroke="#18283b" stroke-width="1" opacity="1"/>
  <polygon points="756.95,307.13 805.42,306.93 805.42,242.11 756.95,242.21" fill="#e8cf82" stroke="#132236" stroke-width="1" opacity="0.95"/>
  <polygon points="756.95,178.65 805.42,178.65 805.42,113.83 756.95,113.73" fill="#e8cf82" stroke="#132236" stroke-width="1" opacity="0.95"/>
  <polygon points="756.95,50.17 805.42,50.37 805.42,-14.44 756.95,-14.75" fill="#e8cf82" stroke="#132236" stroke-width="1" opacity="0.95"/>
  <polygon points="-410.32,351.97 -1027.48,499.01 -1027.48,-158.34 -410.32,-2.39" fill="#d88d55" stroke="#18283b" stroke-width="1" opacity="1"/>
  <polygon points="663.32,307.51 712.08,307.31 712.08,242.30 663.32,242.40" fill="#e8cf82" stroke="#132236" stroke-width="1" opacity="0.95"/>
  <polygon points="663.32,178.64 712.08,178.65 712.08,113.64 663.32,113.53" fill="#e8cf82" stroke="#132236" stroke-width="1" opacity="0.95"/>
  <polygon points="663.32,49.78 712.08,49.98 712.08,-15.03 663.32,-15.33" fill="#e8cf82" stroke="#132236" stroke-width="1" opacity="0.95"/>
  <polygon points="569.13,307.89 618.18,307.69 618.18,242.49 569.13,242.58" fill="#e8cf82" stroke="#132236" stroke-width="1" opacity="0.95"/>
  <polygon points="569.13,178.64 618.18,178.64 618.18,113.44 569.13,113.33" fill="#e8cf82" stroke="#132236" stroke-width="1" opacity="0.95"/>
  <polygon points="569.13,49.39 618.18,49.59 618.18,-15.61 569.13,-15.92" fill="#e8cf82" stroke="#132236" stroke-width="1" opacity="0.95"/>
  <line x1="-1542.48" y1="453.28" x2="1649.96" y2="427.29" stroke="#6f604d" stroke-width="0.7" opacity="0.6"/>
  <polygon points="-1027.48,499.01 -492.17,493.84 -492.17,-152.86 -1027.48,-158.34" fill="#c86d46" stroke="#18283b" stroke-width="1" opacity="1"/>
  <polygon points="-663.21,376.06 -593.87,375.65 -593.87,290.95 -663.21,291.19" fill="#e8cf82" stroke="#132236" stroke-width="1" opacity="0.95"/>
  <polygon points="-663.21,212.84 -593.87,212.77 -593.87,128.07 -663.21,127.96" fill="#e8cf82" stroke="#132236" stroke-width="1" opacity="0.95"/>
  <polygon points="-663.21,49.61 -593.87,49.89 -593.87,-34.81 -663.21,-35.27" fill="#e8cf82" stroke="#132236" stroke-width="1" opacity="0.95"/>
  <polygon points="-797.38,376.87 -727.47,376.45 -727.47,291.40 -797.38,291.64" fill="#e8cf82" stroke="#132236" stroke-width="1" opacity="0.95"/>
  <polygon points="-797.38,212.97 -727.47,212.90 -727.47,127.86 -797.38,127.75" fill="#e8cf82" stroke="#132236" stroke-width="1" opacity="0.95"/>
  <polygon points="-797.38,49.08 -727.47,49.35 -727.47,-35.69 -797.38,-36.15" fill="#e8cf82" stroke="#132236" stroke-width="1" opacity="0.95"/>
  <polygon points="-932.66,377.68 -862.17,377.26 -862.17,291.86 -932.66,292.10" fill="#e8cf82" stroke="#132236" stroke-width="1" opacity="0.95"/>
  <polygon points="-932.66,213.11 -862.17,213.04 -862.17,127.64 -932.66,127.53" fill="#e8cf82" stroke="#132236" stroke-width="1" opacity="0.95"/>
  <polygon points="-932.66,48.54 -862.17,48.82 -862.17,-36.58 -932.66,-37.04" fill="#e8cf82" stroke="#132236" stroke-width="1" opacity="0.95"/>
  <polygon points="350.22,544.17 161.70,546.33 161.70,346.52 350.22,345.53" fill="#a95a37" stroke="#18283b" stroke-width="1" opacity="1"/>
  <line x1="-2416.55" y1="582.12" x2="2196.49" y2="528.26" stroke="#6f604d" stroke-width="0.7" opacity="0.6"/>
  <polygon points="372.08,749.66 350.22,544.17 350.22,345.53 372.08,438.93" fill="#a95a37" stroke="#18283b" stroke-width="1" opacity="1"/>
  <polygon points="76.41,441.35 372.08,438.93 350.22,345.53 161.70,346.52" fill="#e8b36e" stroke="#18283b" stroke-width="1" opacity="1"/>
  <polygon points="161.70,546.33 76.41,754.98 76.41,441.35 161.70,346.52" fill="#e39a59" stroke="#18283b" stroke-width="1" opacity="1"/>
  <polygon points="76.41,754.98 372.08,749.66 372.08,438.93 76.41,441.35" fill="#d07b45" stroke="#18283b" stroke-width="1" opacity="1"/>
  <polygon points="-82.38,757.83 -440.93,764.29 -440.93,339.35 -82.38,337.59" fill="#2d5145" stroke="#18283b" stroke-width="1" opacity="1"/>
  <line x1="-4849.99" y1="940.81" x2="3497.35" y2="768.60" stroke="#6f604d" stroke-width="0.7" opacity="0.6"/>
  <polygon points="-894.34,1949.11 -82.38,757.83 -82.38,337.59 -894.34,662.48" fill="#2d5145" stroke="#18283b" stroke-width="1" opacity="1"/>
  <polygon points="-2046.39,679.37 -894.34,662.48 -82.38,337.59 -440.93,339.35" fill="#6e9b70" stroke="#18283b" stroke-width="1" opacity="1"/>
  <polygon points="-440.93,764.29 -2046.39,2011.02 -2046.39,679.37 -440.93,339.35" fill="#5c8a66" stroke="#18283b" stroke-width="1" opacity="1"/>
  <polygon points="-2046.39,2011.02 -894.34,1949.11 -894.34,662.48 -2046.39,679.37" fill="#406a58" stroke="#18283b" stroke-width="1" opacity="1"/>
  <text x="18" y="30" fill="#173044" font-family="sans-serif" font-size="14" opacity="0.82">PHASE 7C CONTROLLED SYNTHETIC SCENE</text>
</svg>
