<?xml version="1.0" encoding="UTF-8"?>
<svg xmlns="http://www.w3.org/2000/svg" width="640" height="360" viewBox="0 0 640 360">
  <defs>
    <linearGradient id="sky" x1="0" y1="0" x2="0" y2="1">
      <stop offset="0%" stop-color="#9ed4e5"/>
      <stop offset="100%" stop-color="#f0c889"/>
    </linearGradient>
  </defs>
  <rect width="640" height="360" fill="url(#sky)"/>
  <circle cx="535" cy="72" r="30" fill="#ffe4a1" opacity="0.9"/>
  <line x1="164.57" y1="214.55" x2="591.92" y2="215.35" stroke="#6f604d" stroke-width="0.7" opacity="0.6"/>
  <line x1="157.40" y1="216.01" x2="603.05" y2="216.88" stroke="#6f604d" stroke-width="0.7" opacity="0.6"/>
  <line x1="149.59" y1="217.59" x2="615.17" y2="218.55" stroke="#6f604d" stroke-width="0.7" opacity="0.6"/>
  <line x1="141.06" y1="219.33" x2="628.45" y2="220.37" stroke="#6f604d" stroke-width="0.7" opacity="0.6"/>
  <line x1="131.70" y1="221.23" x2="643.04" y2="222.38" stroke="#6f604d" stroke-width="0.7" opacity="0.6"/>
  <line x1="121.40" y1="223.32" x2="659.16" y2="224.59" stroke="#6f604d" stroke-width="0.7" opacity="0.6"/>
  <polygon points="551.35,225.07 441.41,224.81 441.41,94.46 551.35,93.95" fill="#934743" stroke="#18283b" stroke-width="1" opacity="1"/>
  <line x1="109.99" y1="225.64" x2="677.06" y2="227.05" stroke="#6f604d" stroke-width="0.7" opacity="0.6"/>
  <polygon points="441.41,224.81 459.68,232.48 459.68,79.82 441.41,94.46" fill="#db8a6d" stroke="#18283b" stroke-width="1" opacity="1"/>
  <polygon points="459.68,79.82 588.70,79.12 551.35,93.95 441.41,94.46" fill="#db8a6d" stroke="#18283b" stroke-width="1" opacity="1"/>
  <polygon points="588.70,232.84 551.35,225.07 551.35,93.95 588.70,79.12" fill="#934743" stroke="#18283b" stroke-width="1" opacity="1"/>
  <line x1="97.29" y1="228.22" x2="697.05" y2="229.80" stroke="#6f604d" stroke-width="0.7" opacity="0.6"/>
  <polygon points="356.93,230.35 241.50,230.04 241.50,99.64 356.93,99.13" fill="#4c765b" stroke="#18283b" stroke-width="1" opacity="1"/>
  <line x1="83.08" y1="231.10" x2="719.52" y2="232.89" stroke="#6f604d" stroke-width="0.7" opacity="0.6"/>
  <polygon points="485.13,201.99 498.64,202.01 498.64,186.70 485.13,186.69" fill="#e8cf82" stroke="#132236" stroke-width="1" opacity="0.95"/>
  <polygon points="485.13,163.75 498.64,163.73 498.64,148.42 485.13,148.45" fill="#e8cf82" stroke="#132236" stroke-width="1" opacity="0.95"/>
  <polygon points="485.13,125.50 498.64,125.46 498.64,110.15 485.13,110.20" fill="#e8cf82" stroke="#132236" stroke-width="1" opacity="0.95"/>
  <polygon points="459.68,232.48 588.70,232.84 588.70,79.12 459.68,79.82" fill="#bf625b" stroke="#18283b" stroke-width="1" opacity="1"/>
  <polygon points="517.33,202.03 530.89,202.04 530.89,186.71 517.33,186.70" fill="#e8cf82" stroke="#132236" stroke-width="1" opacity="0.95"/>
  <polygon points="517.33,163.72 530.89,163.71 530.89,148.37 517.33,148.39" fill="#e8cf82" stroke="#132236" stroke-width="1" opacity="0.95"/>
  <polygon points="517.33,125.41 530.89,125.37 530.89,110.03 517.33,110.08" fill="#e8cf82" stroke="#132236" stroke-width="1" opacity="0.95"/>
  <polygon points="549.64,202.07 563.25,202.08 563.25,186.72 549.64,186.72" fill="#e8cf82" stroke="#132236" stroke-width="1" opacity="0.95"/>
  <polygon points="549.64,163.69 563.25,163.68 563.25,148.32 549.64,148.34" fill="#e8cf82" stroke="#132236" stroke-width="1" opacity="0.95"/>
  <polygon points="549.64,125.31 563.25,125.27 563.25,109.91 549.64,109.96" fill="#e8cf82" stroke="#132236" stroke-width="1" opacity="0.95"/>
  <polygon points="241.50,230.04 224.86,238.98 224.86,85.28 241.50,99.64" fill="#9bbd83" stroke="#18283b" stroke-width="1" opacity="1"/>
  <polygon points="224.86,85.28 360.94,84.58 356.93,99.13 241.50,99.64" fill="#9bbd83" stroke="#18283b" stroke-width="1" opacity="1"/>
  <polygon points="360.94,239.41 356.93,230.35 356.93,99.13 360.94,84.58" fill="#4c765b" stroke="#18283b" stroke-width="1" opacity="1"/>
  <line x1="67.05" y1="234.36" x2="744.95" y2="236.38" stroke="#6f604d" stroke-width="0.7" opacity="0.6"/>
  <polygon points="251.14,209.20 266.13,209.22 266.13,192.01 251.14,192.00" fill="#e8cf82" stroke="#132236" stroke-width="1" opacity="0.95"/>
  <polygon points="251.14,170.69 266.13,170.68 266.13,153.47 251.14,153.49" fill="#e8cf82" stroke="#132236" stroke-width="1" opacity="0.95"/>
  <polygon points="251.14,132.17 266.13,132.13 266.13,114.92 251.14,114.98" fill="#e8cf82" stroke="#132236" stroke-width="1" opacity="0.95"/>
  <polygon points="224.86,238.98 360.94,239.41 360.94,84.58 224.86,85.28" fill="#6c9b75" stroke="#18283b" stroke-width="1" opacity="1"/>
  <polygon points="285.09,209.25 300.15,209.28 300.15,192.03 285.09,192.02" fill="#e8cf82" stroke="#132236" stroke-width="1" opacity="0.95"/>
  <polygon points="285.09,170.67 300.15,170.66 300.15,153.42 285.09,153.44" fill="#e8cf82" stroke="#132236" stroke-width="1" opacity="0.95"/>
  <polygon points="285.09,132.09 300.15,132.05 300.15,114.80 285.09,114.86" fill="#e8cf82" stroke="#132236" stroke-width="1" opacity="0.95"/>
  <polygon points="319.17,209.31 334.28,209.33 334.28,192.06 319.17,192.05" fill="#e8cf82" stroke="#132236" stroke-width="1" opacity="0.95"/>
  <polygon points="319.17,170.65 334.28,170.64 334.28,153.37 319.17,153.39" fill="#e8cf82" stroke="#132236" stroke-width="1" opacity="0.95"/>
  <polygon points="319.17,132.00 334.28,131.96 334.28,114.68 319.17,114.74" fill="#e8cf82" stroke="#132236" stroke-width="1" opacity="0.95"/>
  <line x1="48.84" y1="238.06" x2="773.99" y2="240.37" stroke="#6f604d" stroke-width="0.7" opacity="0.6"/>
  <polygon points="698.12,243.57 600.37,243.24 600.37,128.26 698.12,127.99" fill="#5c4d87" stroke="#18283b" stroke-width="1" opacity="1"/>
  <line x1="27.97" y1="242.30" x2="807.45" y2="244.97" stroke="#6f604d" stroke-width="0.7" opacity="0.6"/>
  <polygon points="600.37,243.24 654.59,256.15 654.59,117.70 600.37,128.26" fill="#a088c4" stroke="#18283b" stroke-width="1" opacity="1"/>
  <line x1="3.81" y1="247.21" x2="846.42" y2="250.33" stroke="#6f604d" stroke-width="0.7" opacity="0.6"/>
  <polygon points="654.59,117.70 772.75,117.31 698.12,127.99 600.37,128.26" fill="#a088c4" stroke="#18283b" stroke-width="1" opacity="1"/>
  <polygon points="772.75,256.63 698.12,243.57 698.12,127.99 772.75,117.31" fill="#5c4d87" stroke="#18283b" stroke-width="1" opacity="1"/>
  <line x1="-24.48" y1="252.95" x2="892.40" y2="256.64" stroke="#6f604d" stroke-width="0.7" opacity="0.6"/>
  <polygon points="676.70,230.65 692.03,230.69 692.03,212.63 676.70,212.61" fill="#e8cf82" stroke="#132236" stroke-width="1" opacity="0.95"/>
  <polygon points="676.70,195.96 692.03,195.97 692.03,177.92 676.70,177.92" fill="#e8cf82" stroke="#132236" stroke-width="1" opacity="0.95"/>
  <polygon points="676.70,161.27 692.03,161.25 692.03,143.20 676.70,143.23" fill="#e8cf82" stroke="#132236" stroke-width="1" opacity="0.95"/>
  <polygon points="654.59,256.15 772.75,256.63 772.75,117.31 654.59,117.70" fill="#7d6aa5" stroke="#18283b" stroke-width="1" opacity="1"/>
  <polygon points="706.20,230.73 721.58,230.77 721.58,212.69 706.20,212.66" fill="#e8cf82" stroke="#132236" stroke-width="1" opacity="0.95"/>
  <polygon points="706.20,195.98 721.58,196.00 721.58,177.91 706.20,177.92" fill="#e8cf82" stroke="#132236" stroke-width="1" opacity="0.95"/>
  <polygon points="706.20,161.24 721.58,161.22 721.58,143.14 706.20,143.17" fill="#e8cf82" stroke="#132236" stroke-width="1" opacity="0.95"/>
  <polygon points="735.80,230.81 751.22,230.85 751.22,212.74 735.80,212.71" fill="#e8cf82" stroke="#132236" stroke-width="1" opacity="0.95"/>
  <polygon points="735.80,196.01 751.22,196.02 751.22,177.91 735.80,177.91" fill="#e8cf82" stroke="#132236" stroke-width="1" opacity="0.95"/>
  <polygon points="735.80,161.21 751.22,161.19 751.22,143.08 735.80,143.11" fill="#e8cf82" stroke="#132236" stroke-width="1" opacity="0.95"/>
  <polygon points="402.13,257.84 298.51,257.41 298.51,126.05 402.13,125.75" fill="#396675" stroke="#18283b" stroke-width="1" opacity="1"/>
  <line x1="-58.06" y1="259.77" x2="947.45" y2="264.21" stroke="#6f604d" stroke-width="0.7" opacity="0.6"/>
  <polygon points="298.51,257.41 290.06,275.49 290.06,113.45 298.51,126.05" fill="#6aa2a7" stroke="#18283b" stroke-width="1" opacity="1"/>
  <polygon points="290.06,113.45 418.01,112.98 402.13,125.75 298.51,126.05" fill="#6aa2a7" stroke="#18283b" stroke-width="1" opacity="1"/>
  <polygon points="418.01,276.15 402.13,257.84 402.13,125.75 418.01,112.98" fill="#396675" stroke="#18283b" stroke-width="1" opacity="1"/>
  <line x1="-98.57" y1="268.00" x2="1014.56" y2="273.43" stroke="#6f604d" stroke-width="0.7" opacity="0.6"/>
  <polygon points="313.57,245.68 330.17,245.74 330.17,224.60 313.57,224.56" fill="#e8cf82" stroke="#132236" stroke-width="1" opacity="0.95"/>
  <polygon points="313.57,205.07 330.17,205.09 330.17,183.95 313.57,183.95" fill="#e8cf82" stroke="#132236" stroke-width="1" opacity="0.95"/>
  <polygon points="313.57,164.45 330.17,164.44 330.17,143.30 313.57,143.33" fill="#e8cf82" stroke="#132236" stroke-width="1" opacity="0.95"/>
  <polygon points="290.06,275.49 418.01,276.15 418.01,112.98 290.06,113.45" fill="#4f8290" stroke="#18283b" stroke-width="1" opacity="1"/>
  <polygon points="345.52,245.80 362.17,245.86 362.17,224.68 345.52,224.64" fill="#e8cf82" stroke="#132236" stroke-width="1" opacity="0.95"/>
  <polygon points="345.52,205.11 362.17,205.13 362.17,183.96 345.52,183.95" fill="#e8cf82" stroke="#132236" stroke-width="1" opacity="0.95"/>
  <polygon points="345.52,164.42 362.17,164.41 362.17,143.23 345.52,143.27" fill="#e8cf82" stroke="#132236" stroke-width="1" opacity="0.95"/>
  <polygon points="377.57,245.91 394.29,245.97 394.29,224.76 377.57,224.72" fill="#e8cf82" stroke="#132236" stroke-width="1" opacity="0.95"/>
  <polygon points="377.57,205.15 394.29,205.18 394.29,183.96 377.57,183.96" fill="#e8cf82" stroke="#132236" stroke-width="1" opacity="0.95"/>
  <polygon points="377.57,164.40 394.29,164.38 394.29,143.17 377.57,143.20" fill="#e8cf82" stroke="#132236" stroke-width="1" opacity="0.95"/>
  <line x1="-148.40" y1="278.13" x2="1098.18" y2="284.92" stroke="#6f604d" stroke-width="0.7" opacity="0.6"/>
  <polygon points="795.54,285.14 614.35,284.14 614.35,44.31 795.54,43.00" fill="#ae7738" stroke="#18283b" stroke-width="1" opacity="1"/>
  <line x1="-211.18" y1="290.88" x2="1205.25" y2="299.63" stroke="#6f604d" stroke-width="0.7" opacity="0.6"/>
  <polygon points="251.24,297.58 61.60,296.37 61.60,56.58 251.24,55.29" fill="#a94f39" stroke="#18283b" stroke-width="1" opacity="1"/>
  <polygon points="614.35,284.14 729.25,326.92 729.25,-11.44 614.35,44.31" fill="#e2c16a" stroke="#18283b" stroke-width="1" opacity="1"/>
  <polygon points="729.25,-11.44 987.47,-14.05 795.54,43.00 614.35,44.31" fill="#e2c16a" stroke="#18283b" stroke-width="1" opacity="1"/>
  <polygon points="987.47,328.92 795.54,285.14 795.54,43.00 987.47,-14.05" fill="#ae7738" stroke="#18283b" stroke-width="1" opacity="1"/>
  <line x1="-292.71" y1="307.44" x2="1347.25" y2="319.15" stroke="#6f604d" stroke-width="0.7" opacity="0.6"/>
  <polygon points="61.60,296.37 -62.11,349.09 -62.11,0.66 61.60,56.58" fill="#d88d55" stroke="#18283b" stroke-width="1" opacity="1"/>
  <polygon points="-62.11,0.66 212.87,-2.07 251.24,55.29 61.60,56.58" fill="#d88d55" stroke="#18283b" stroke-width="1" opacity="1"/>
  <polygon points="212.87,351.67 251.24,297.58 251.24,55.29 212.87,-2.07" fill="#a94f39" stroke="#18283b" stroke-width="1" opacity="1"/>
  <polygon points="777.40,264.08 810.81,264.23 810.81,221.22 777.40,221.15" fill="#e8cf82" stroke="#132236" stroke-width="1" opacity="0.95"/>
  <polygon points="777.40,179.11 810.81,179.10 810.81,136.09 777.40,136.17" fill="#e8cf82" stroke="#132236" stroke-width="1" opacity="0.95"/>
  <polygon points="777.40,94.13 810.81,93.98 810.81,50.97 777.40,51.20" fill="#e8cf82" stroke="#132236" stroke-width="1" opacity="0.95"/>
  <polygon points="729.25,326.92 987.47,328.92 987.47,-14.05 729.25,-11.44" fill="#d1a44e" stroke="#18283b" stroke-width="1" opacity="1"/>
  <polygon points="841.76,264.37 875.40,264.52 875.40,221.36 841.76,221.29" fill="#e8cf82" stroke="#132236" stroke-width="1" opacity="0.95"/>
  <polygon points="841.76,179.10 875.40,179.10 875.40,135.94 841.76,136.02" fill="#e8cf82" stroke="#132236" stroke-width="1" opacity="0.95"/>
  <polygon points="841.76,93.84 875.40,93.69 875.40,50.53 841.76,50.76" fill="#e8cf82" stroke="#132236" stroke-width="1" opacity="0.95"/>
  <polygon points="906.56,264.65 940.42,264.80 940.42,221.50 906.56,221.43" fill="#e8cf82" stroke="#132236" stroke-width="1" opacity="0.95"/>
  <polygon points="906.56,179.10 940.42,179.10 940.42,135.79 906.56,135.87" fill="#e8cf82" stroke="#132236" stroke-width="1" opacity="0.95"/>
  <polygon points="906.56,93.55 940.42,93.39 940.42,50.09 906.56,50.32" fill="#e8cf82" stroke="#132236" stroke-width="1" opacity="0.95"/>
  <line x1="-402.88" y1="329.82" x2="1544.59" y2="346.26" stroke="#6f604d" stroke-width="0.7" opacity="0.6"/>
  <polygon points="-12.69,285.17 22.87,285.38 22.87,239.76 -12.69,239.64" fill="#e8cf82" stroke="#132236" stroke-width="1" opacity="0.95"/>
  <polygon points="-12.69,197.61 22.87,197.65 22.87,152.03 -12.69,152.08" fill="#e8cf82" stroke="#132236" stroke-width="1" opacity="0.95"/>
  <polygon points="-12.69,110.06 22.87,109.92 22.87,64.30 -12.69,64.53" fill="#e8cf82" stroke="#132236" stroke-width="1" opacity="0.95"/>
  <polygon points="-62.11,349.09 212.87,351.67 212.87,-2.07 -62.11,0.66" fill="#c86d46" stroke="#18283b" stroke-width="1" opacity="1"/>
  <polygon points="55.82,285.57 91.65,285.78 91.65,239.99 55.82,239.87" fill="#e8cf82" stroke="#132236" stroke-width="1" opacity="0.95"/>
  <polygon points="55.82,197.68 91.65,197.72 91.65,151.92 55.82,151.98" fill="#e8cf82" stroke="#132236" stroke-width="1" opacity="0.95"/>
  <polygon points="55.82,109.79 91.65,109.65 91.65,63.86 55.82,64.09" fill="#e8cf82" stroke="#132236" stroke-width="1" opacity="0.95"/>
  <polygon points="124.85,285.97 160.96,286.18 160.96,240.21 124.85,240.10" fill="#e8cf82" stroke="#132236" stroke-width="1" opacity="0.95"/>
  <polygon points="124.85,197.75 160.96,197.78 160.96,151.82 124.85,151.87" fill="#e8cf82" stroke="#132236" stroke-width="1" opacity="0.95"/>
  <polygon points="124.85,109.53 160.96,109.39 160.96,63.42 124.85,63.65" fill="#e8cf82" stroke="#132236" stroke-width="1" opacity="0.95"/>
  <polygon points="714.42,373.92 612.97,372.88 612.97,267.67 714.42,268.15" fill="#a95a37" stroke="#18283b" stroke-width="1" opacity="1"/>
  <line x1="-559.99" y1="361.74" x2="1837.47" y2="386.51" stroke="#6f604d" stroke-width="0.7" opacity="0.6"/>
  <polygon points="612.97,372.88 678.69,418.42 678.69,288.37 612.97,267.67" fill="#e39a59" stroke="#18283b" stroke-width="1" opacity="1"/>
  <polygon points="678.69,288.37 804.68,289.10 714.42,268.15 612.97,267.67" fill="#e8b36e" stroke="#18283b" stroke-width="1" opacity="1"/>
  <polygon points="804.68,420.02 714.42,373.92 714.42,268.15 804.68,289.10" fill="#a95a37" stroke="#18283b" stroke-width="1" opacity="1"/>
  <polygon points="612.66,417.58 467.58,415.75 467.58,244.29 612.66,244.80" fill="#2d5145" stroke="#18283b" stroke-width="1" opacity="1"/>
  <polygon points="678.69,418.42 804.68,420.02 804.68,289.10 678.69,288.37" fill="#d07b45" stroke="#18283b" stroke-width="1" opacity="1"/>
  <line x1="-802.15" y1="410.93" x2="2317.41" y2="452.46" stroke="#6f604d" stroke-width="0.7" opacity="0.6"/>
  <polygon points="467.58,415.75 517.92,505.01 517.92,268.64 467.58,244.29" fill="#5c8a66" stroke="#18283b" stroke-width="1" opacity="1"/>
  <polygon points="517.92,268.64 719.07,269.59 612.66,244.80 467.58,244.29" fill="#6e9b70" stroke="#18283b" stroke-width="1" opacity="1"/>
  <polygon points="719.07,508.51 612.66,417.58 612.66,244.80 719.07,269.59" fill="#2d5145" stroke="#18283b" stroke-width="1" opacity="1"/>
  <polygon points="517.92,505.01 719.07,508.51 719.07,269.59 517.92,268.64" fill="#406a58" stroke="#18283b" stroke-width="1" opacity="1"/>
  <line x1="-1224.07" y1="496.64" x2="3247.74" y2="580.30" stroke="#6f604d" stroke-width="0.7" opacity="0.6"/>
  <line x1="-2144.02" y1="683.52" x2="5822.86" y2="934.15" stroke="#6f604d" stroke-width="0.7" opacity="0.6"/>
  <text x="18" y="30" fill="#173044" font-family="sans-serif" font-size="14" opacity="0.82">PHASE 7C CONTROLLED SYNTHETIC SCENE</text>
</svg>
